<svg xmlns="http://www.w3.org/2000/svg" width="107" height="45" fill="none"><path fill="#FAF4EA" d="M4.875 9.738 3.094 8.66C1.977 7.98 1.18 7.312.704 6.656.233 5.992 0 5.23 0 4.371c0-1.289.445-2.336 1.336-3.14C2.234.425 3.398.022 4.828.022c1.367 0 2.621.383 3.762 1.149v2.66c-1.18-1.133-2.45-1.7-3.809-1.7-.765 0-1.394.18-1.886.54-.493.351-.739.805-.739 1.36 0 .491.18.952.54 1.382.359.43.94.879 1.745 1.348l1.793 1.054c2 1.188 3 2.704 3 4.547 0 1.313-.441 2.38-1.324 3.2-.875.82-2.015 1.23-3.422 1.23-1.617 0-3.09-.496-4.418-1.488v-2.977C1.336 13.93 2.8 14.73 4.465 14.73c.734 0 1.344-.203 1.828-.609.492-.414.738-.93.738-1.547 0-1-.718-1.945-2.156-2.836ZM23.355.234H25.7v16.371h-2.344V9.48h-9.199v7.125h-2.344V.235h2.344v7.077h9.2V.234ZM37.36 0c2.532 0 4.637.8 6.317 2.402 1.687 1.602 2.531 3.61 2.531 6.024s-.852 4.414-2.555 6c-1.695 1.578-3.836 2.367-6.422 2.367-2.468 0-4.527-.79-6.175-2.367-1.64-1.586-2.461-3.57-2.461-5.953 0-2.446.828-4.47 2.484-6.07C32.734.8 34.828 0 37.36 0Zm.094 2.227c-1.875 0-3.418.586-4.629 1.757-1.203 1.172-1.804 2.668-1.804 4.489 0 1.765.605 3.234 1.816 4.406 1.21 1.172 2.727 1.758 4.547 1.758 1.828 0 3.351-.598 4.57-1.793 1.227-1.196 1.84-2.684 1.84-4.465 0-1.734-.613-3.191-1.84-4.371-1.219-1.188-2.719-1.781-4.5-1.781ZM48.95 16.606V.21h5.192c1.562 0 2.808.422 3.738 1.266.93.843 1.394 1.976 1.394 3.398 0 .953-.238 1.797-.714 2.531a4.122 4.122 0 0 1-1.957 1.606c-.829.328-2.016.492-3.563.492h-1.734v7.101h-2.356Zm4.782-14.31h-2.426v5.122h2.566c.953 0 1.688-.223 2.203-.668.516-.453.774-1.098.774-1.934 0-1.68-1.04-2.52-3.117-2.52ZM15.89 40c0 1.398-.48 2.516-1.442 3.352-.953.836-2.289 1.254-4.008 1.254H1.055V28.363h7.851c1.016 0 1.899.098 2.649.293.758.196 1.367.465 1.828.809.46.336.805.734 1.031 1.195.227.461.34.965.34 1.512a3.989 3.989 0 0 1-1.23 2.895c-.344.32-.692.546-1.043.68 1.109.437 1.953.991 2.53 1.663.587.664.88 1.528.88 2.59Zm-5.72-6.96c0-.782-.257-1.302-.773-1.56-.515-.257-1.32-.386-2.414-.386h-1.03v3.89h1.054c1.117 0 1.922-.129 2.414-.386.5-.258.75-.778.75-1.559Zm.798 6.76c0-1.39-1.008-2.085-3.024-2.085H5.953v4.16h1.992c2.016 0 3.024-.691 3.024-2.074Zm25.195 4.806h-5.016l-1.324-3.294H22.77l-1.347 3.294h-5.016l7.184-16.243h5.414l7.16 16.242ZM28.7 38.487l-2.379-5.93-2.402 5.93h4.781Zm26.707 6.117H49.43L43.219 37v7.605H38.32V28.363h4.899v7.266l5.883-7.266h5.32l-6.047 7.606 7.031 8.636Zm14.38 0H57.538V28.363h12.047v3.258h-7.148v2.977h6.82v3.27h-6.82v3.468h7.347v3.27Zm19.019 0h-5.262l-1.277-2.882c-.47-1.055-.891-1.825-1.266-2.309-.375-.492-.742-.805-1.102-.937-.351-.141-.808-.211-1.37-.211h-.551v6.34h-4.899V28.363h8.332c1.344 0 2.446.274 3.305.82.86.547 1.476 1.212 1.851 1.993.383.781.575 1.523.575 2.226 0 .82-.16 1.516-.48 2.086-.313.563-.645.973-.997 1.23a9.92 9.92 0 0 1-1.183.739c.523.305.953.668 1.288 1.09.344.414.81 1.258 1.395 2.531l1.64 3.527Zm-6.657-11.109c0-.75-.246-1.273-.738-1.57-.492-.297-1.293-.445-2.402-.445h-1.031v3.913h1.054c1.196 0 2.012-.128 2.45-.386.445-.266.667-.77.667-1.512Zm24.024-5.133-6.363 8.801v7.441H94.91v-7.347l-6.48-8.895h5.086l3.726 5.11 3.738-5.11h5.192Z"/></svg>